<svg width="800" height="800" viewBox="0 0 16 16" xmlns="http://www.w3.org/2000/svg"><path fill-rule="evenodd" fill="black" d="M6.772.684A1 1 0 0 1 7.721 0h.558a1 1 0 0 1 .949.684l.525 1.576q.559.172 1.065.442l1.487-.744a1 1 0 0 1 1.154.188l.395.395a1 1 0 0 1 .188 1.154l-.744 1.487q.27.506.442 1.065l1.576.525a1 1 0 0 1 .684.949v.558a1 1 0 0 1-.684.949l-1.576.525a6 6 0 0 1-.442 1.065l.744 1.487a1 1 0 0 1-.188 1.154l-.395.395a1 1 0 0 1-1.154.188l-1.487-.744q-.506.27-1.065.442l-.525 1.576a1 1 0 0 1-.949.684h-.558a1 1 0 0 1-.949-.684l-.525-1.576a6 6 0 0 1-1.065-.442l-1.487.744a1 1 0 0 1-1.154-.188l-.395-.395a1 1 0 0 1-.188-1.154l.744-1.487a6 6 0 0 1-.442-1.065L.684 9.228A1 1 0 0 1 0 8.279v-.558a1 1 0 0 1 .684-.949l1.576-.525q.172-.559.442-1.065l-.744-1.487a1 1 0 0 1 .188-1.154l.395-.395a1 1 0 0 1 1.154-.188l1.487.744q.506-.27 1.065-.442zM8 12a4 4 0 1 0 0-8 4 4 0 0 0 0 8"/></svg>